<?xml version="1.0" encoding="UTF-8"?>
<!-- Created with Inkscape (http://www.inkscape.org/) -->
<svg fill="white" stroke="black" width="19.473mm" height="34.013mm" version="1.1" viewBox="0 0 19.473 34.013" xmlns="http://www.w3.org/2000/svg">
 <defs>
  <pattern id="Strips1_1" width="2" height="1" patternTransform="translate(0) scale(10)" patternUnits="userSpaceOnUse">
   <rect y="-.5" width="1" height="2"/>
  </pattern>
 </defs>
 <g transform="translate(-97.701 -56.462)">
  <g transform="matrix(.26458 0 0 .26458 89.348 28.846)" stroke-miterlimit="10" stroke-width="1.2">
   <g>
    <path class="st2" d="m56.5 184.61c-54.04-22.71 0.21-42.89 1.03-44.4 0.62-1.13-2.46-11.24-4.04-16.24-1-3.16-1.06-6.58 0.03-9.7 1.27-3.61 4.14-7.51 10.57-8.67 12.86-2.33 22.17 14.37 22.17 14.37l-6.57 1.23-2.55 17.6s40.86 17.7 21.16 40.13c0 0 3.33 2.46 5.7 1.96 0 0-0.96 7.57-9.71 6.25"/>
    <path class="st2" d="m93.69 158.68c0.61 2.42 0.35 15-0.14 28.14-0.59 16.12-1.51 33.07-1.51 33.07l10.58 12.04h-52.8l3.53-42.39 0.59-5.7"/>
    <line class="st2" x1="76.82" x2="76.82" y1="196.08" y2="231.93"/>
   </g>
   <circle class="st3" cx="72.88" cy="115.32" r="1.21" />
   <ellipse class="st2" cx="74.31" cy="126.97" rx="4.15" ry="2.77" stroke-width="1.9994"/>
   <ellipse cx="74.224" cy="126.75" rx="2.4175" ry="1.215" fill-rule="evenodd" stroke-width="2.7553"/>
   <ellipse cx="73.015" cy="115.4" rx=".98614" ry=".28033" fill-rule="evenodd" stroke-width="2"/>
  </g>
 </g>
</svg>
