<?xml version="1.0" standalone="no"?>
<!DOCTYPE svg PUBLIC "-//W3C//DTD SVG 20010904//EN"
 "http://www.w3.org/TR/2001/REC-SVG-20010904/DTD/svg10.dtd">
<svg version="1.0" xmlns="http://www.w3.org/2000/svg"
 width="1277.000000pt" height="1277.000000pt" viewBox="0 0 1277.000000 1277.000000"
 preserveAspectRatio="xMidYMid meet">
<metadata>
Created by potrace 1.14, written by Peter Selinger 2001-2017
</metadata>
<g transform="translate(0.000000,1277.000000) scale(0.100000,-0.100000)"
fill="#000000" stroke="none">
<path d="M6297 12698 c-19 -40 -73 -154 -120 -253 -46 -99 -105 -223 -129
-275 -25 -52 -58 -122 -73 -155 -16 -33 -55 -116 -88 -185 -32 -69 -70 -149
-83 -177 -14 -29 -28 -53 -32 -54 -4 0 -74 -2 -157 -3 l-150 -2 -140 142 c-77
78 -241 246 -364 373 -123 127 -226 229 -228 227 -2 -2 0 -30 6 -62 5 -33 13
-84 17 -114 10 -85 11 -90 23 -170 6 -41 13 -91 15 -110 4 -33 59 -429 71
-512 5 -37 11 -80 20 -143 2 -16 16 -115 30 -220 15 -104 28 -201 30 -215 2
-14 7 -50 11 -80 3 -30 8 -64 9 -75 2 -11 6 -39 9 -62 3 -23 7 -48 8 -55 2 -7
-26 -27 -61 -45 l-64 -33 71 0 71 0 -38 -82 c-46 -100 -67 -174 -84 -299 -13
-93 -15 -306 -3 -384 8 -54 34 -205 40 -230 3 -17 28 -119 41 -175 12 -51 91
-297 135 -420 28 -80 65 -183 81 -230 110 -308 148 -463 143 -584 -1 -37 -5
-70 -7 -73 -3 -2 -31 9 -63 25 -99 50 -185 56 -307 22 -148 -41 -290 -140
-487 -342 -80 -81 -92 -89 -195 -133 -182 -78 -498 -232 -615 -299 -25 -14
-52 -29 -60 -33 -33 -15 -239 -140 -300 -182 -136 -92 -157 -108 -235 -170
-362 -292 -520 -569 -481 -845 21 -149 100 -344 198 -491 96 -143 154 -212
302 -358 l99 -98 -37 -132 c-80 -282 -131 -475 -221 -837 -41 -162 -76 -306
-78 -320 -3 -14 -15 -63 -26 -110 -18 -69 -157 -703 -176 -800 -3 -14 -7 -34
-10 -45 -2 -11 -16 -78 -30 -150 -26 -125 -30 -146 -39 -190 -14 -68 -61 -313
-86 -445 -16 -85 -31 -166 -34 -180 -9 -44 -25 -134 -31 -165 -2 -16 -10 -57
-15 -90 -18 -98 -19 -104 -46 -260 -15 -82 -28 -160 -29 -172 -2 -12 -6 -34
-9 -50 -7 -34 -16 -87 -22 -128 -2 -16 -6 -39 -8 -50 -2 -12 -7 -46 -11 -78
-4 -31 -9 -57 -11 -57 -2 0 -24 16 -49 35 -83 63 -166 72 -290 31 -44 -14
-123 -35 -175 -46 -155 -34 -224 -58 -272 -94 -42 -33 -52 -49 -111 -176 -7
-14 -28 -52 -48 -85 -66 -111 -73 -159 -33 -220 49 -75 212 -158 336 -171 48
-5 147 3 237 21 77 15 587 23 1761 30 l955 5 -5 -65 -5 -65 2369 0 2369 0 -24
27 c-13 15 -31 34 -39 43 -8 8 -23 25 -34 37 l-18 22 1098 0 c1178 0 1264 1
1249 6 -5 2 -62 20 -125 40 -63 20 -121 38 -128 40 -7 3 -14 5 -17 5 -3 0 -66
32 -141 70 -110 56 -354 205 -374 230 -3 3 -41 34 -85 68 -96 76 -257 231
-340 327 -33 39 -63 72 -66 75 -3 3 -36 45 -73 94 -168 220 -307 465 -424 746
-36 87 -119 329 -128 374 -2 11 -10 40 -18 65 -14 43 -40 147 -50 205 -3 14
-7 34 -10 44 -3 9 -7 34 -11 56 -3 21 -7 41 -9 45 -2 3 -7 29 -10 56 -4 28 -9
57 -11 65 -2 8 -6 33 -10 55 -3 22 -14 85 -25 140 -10 55 -22 116 -25 135 -3
19 -10 51 -15 70 -5 19 -12 51 -15 70 -3 19 -22 98 -41 175 -19 77 -37 149
-39 159 -34 157 -199 650 -275 821 -10 22 -31 69 -46 105 -86 197 -259 506
-361 641 -29 38 -49 69 -46 69 3 0 27 -12 52 -27 97 -57 154 -87 396 -207 356
-178 648 -299 965 -400 246 -79 524 -143 700 -161 30 -4 62 -8 70 -10 8 -3 79
-7 158 -10 112 -5 143 -3 146 7 3 7 7 105 11 218 3 113 8 225 10 250 2 25 6
97 10 160 3 63 8 140 10 170 2 30 6 91 9 135 7 104 16 226 21 295 17 210 17
240 4 241 -8 0 -25 2 -39 4 -14 2 -79 10 -145 19 -66 9 -140 21 -165 26 -25 6
-61 12 -80 15 -19 2 -60 9 -90 15 -30 6 -64 13 -75 15 -11 1 -63 12 -115 24
-52 12 -103 24 -114 26 -188 41 -633 178 -781 240 -16 7 -46 18 -65 26 -74 27
-309 133 -434 196 -724 362 -1331 900 -1712 1515 -82 133 -167 307 -167 343 0
37 12 158 28 285 2 19 7 67 11 105 3 39 8 77 9 87 6 28 14 101 20 168 3 36 8
79 10 95 2 17 6 59 10 95 4 36 8 76 10 89 3 14 7 54 11 90 3 36 8 80 10 96 2
17 6 57 10 90 6 69 12 106 16 110 2 1 55 10 118 19 232 32 359 68 424 120 31
25 24 84 -19 163 -41 75 -151 226 -214 294 -22 24 -41 51 -41 59 0 31 159 467
220 605 10 22 39 87 64 144 110 249 245 478 337 576 50 53 50 54 34 79 -10 14
-21 26 -27 26 -5 0 -107 -65 -227 -144 -214 -141 -220 -144 -257 -136 -22 5
-52 11 -69 14 -16 3 -61 12 -100 21 -38 8 -74 15 -78 15 -5 0 -6 8 -3 18 2 9
7 42 11 72 3 30 8 71 10 90 6 44 16 127 20 160 1 14 8 61 14 105 6 44 13 103
16 130 7 70 15 127 20 145 2 8 7 42 10 75 3 33 12 104 18 157 7 53 10 95 7 93
-3 -2 -36 -50 -75 -106 -38 -57 -75 -110 -82 -119 -7 -8 -57 -80 -112 -160
-56 -80 -105 -152 -111 -160 -6 -8 -76 -109 -156 -225 -80 -115 -147 -211
-147 -212 -1 0 -42 8 -92 18 -49 11 -103 22 -120 25 -60 10 -62 12 -85 97 -12
45 -26 96 -32 112 -5 17 -27 98 -48 180 -22 83 -49 179 -59 215 -10 36 -29
103 -41 150 -12 47 -31 114 -41 150 -37 134 -72 265 -72 278 -1 21 -5 14 -40
-60z"/>
</g>
</svg>
